<svg width="142" height="38" viewBox="0 0 142 38" fill="none" xmlns="http://www.w3.org/2000/svg">
<g clip-path="url(#clip0_134_7813)">
<path d="M49.6287 15.9708C49.6287 7.15201 56.8048 0.002388 65.6562 0.002388C74.5077 0.002388 81.6838 7.15201 81.6838 15.9708H49.6287Z" fill="url(#paint0_linear_134_7813)"/>
<path d="M81.5664 0.00296879C81.5664 8.82179 74.3903 15.9714 65.5388 15.9714C56.6873 15.9714 49.5112 8.82179 49.5112 0.00296879H81.5664Z" fill="url(#paint1_linear_134_7813)"/>
<rect x="59.2449" y="1.85366" width="13.1656" height="12.0488" fill="#001521"/>
<path d="M65.6563 0C59.681 0 54.4727 3.2596 51.7139 8.0881C54.5014 12.8044 59.6474 15.9732 65.5364 15.9732C71.4254 15.9732 76.72 12.7136 79.4788 7.88512C76.6937 3.16647 71.5477 0 65.6563 0ZM65.6563 13.4157C62.6459 13.4157 60.2059 10.9847 60.2059 7.98542C60.2059 4.98611 62.6459 2.55514 65.6563 2.55514C68.6667 2.55514 71.1067 4.98611 71.1067 7.98542C71.1067 10.9847 68.6667 13.4157 65.6563 13.4157Z" fill="#F2F0E9"/>
<path d="M0.769382 22.8745C1.2823 21.9313 1.99416 21.2005 2.90495 20.6799C3.81575 20.1618 4.85597 19.9015 6.03281 19.9015C7.54521 19.9015 8.79636 20.2788 9.78625 21.031C10.7761 21.7856 11.4401 22.8411 11.7804 24.1998H8.45601C8.28104 23.6721 7.98383 23.2614 7.56439 22.9605C7.14494 22.662 6.62962 22.5115 6.01124 22.5115C5.13161 22.5115 4.43413 22.8291 3.91881 23.4667C3.40349 24.1043 3.14943 25.007 3.14943 26.1771C3.14943 27.3472 3.40589 28.2284 3.91881 28.8636C4.43173 29.4988 5.12921 29.8188 6.01124 29.8188C7.25999 29.8188 8.07251 29.2624 8.45601 28.1519H11.7804C11.4425 29.4677 10.7737 30.5137 9.77666 31.2898C8.77718 32.0659 7.53083 32.4527 6.03281 32.4527C4.85837 32.4527 3.81575 32.1924 2.90495 31.6742C1.99416 31.156 1.2823 30.4229 0.769382 29.4797C0.25646 28.5364 0 27.4356 0 26.1771C0 24.9186 0.25646 23.8178 0.769382 22.8745Z" fill="#E50071"/>
<path d="M24.9965 20.0997L17.4441 38H14.1628L16.8041 31.9465L11.917 20.0997H15.3732L18.5226 28.589L21.7152 20.0997H24.9965Z" fill="#E50071"/>
<path d="M31.3721 20.4507C32.0696 20.0853 32.8653 19.9015 33.7617 19.9015C34.8043 19.9015 35.7463 20.157 36.59 20.668C37.4337 21.179 38.1024 21.9074 38.5937 22.8506C39.0851 23.7939 39.3319 24.8876 39.3319 26.1293C39.3319 27.3711 39.0851 28.4743 38.5937 29.4319C38.1024 30.3895 37.4337 31.1322 36.59 31.6575C35.7463 32.1853 34.8019 32.4479 33.7617 32.4479C32.8509 32.4479 32.0552 32.2688 31.3721 31.9106C30.689 31.5524 30.1425 31.0892 29.7326 30.5184V32.2521H26.6503V16.0186H29.7326V21.8763C30.1281 21.2913 30.677 20.8161 31.3721 20.4507ZM35.7319 24.2357C35.4299 23.7007 35.0344 23.2948 34.5431 23.0178C34.0517 22.7408 33.5196 22.5999 32.9468 22.5999C32.374 22.5999 31.8634 22.7432 31.3721 23.0273C30.8807 23.3115 30.4829 23.727 30.1833 24.2667C29.8836 24.8088 29.7326 25.444 29.7326 26.1747C29.7326 26.9054 29.8836 27.543 30.1833 28.0827C30.4829 28.6224 30.8807 29.0379 31.3721 29.3221C31.8634 29.6062 32.3883 29.7495 32.9468 29.7495C33.5053 29.7495 34.0517 29.6038 34.5431 29.3101C35.0344 29.0188 35.4299 28.6009 35.7319 28.0588C36.0315 27.5191 36.1825 26.8744 36.1825 26.1293C36.1825 25.3843 36.0315 24.7658 35.7319 24.2309V24.2357Z" fill="#E50071"/>
<path d="M52.8285 27.0988H43.9099C43.9842 27.9752 44.291 28.663 44.835 29.1621C45.3767 29.6588 46.0454 29.9071 46.8388 29.9071C47.9845 29.9071 48.7994 29.4176 49.2836 28.4385H52.608C52.2556 29.6086 51.5797 30.571 50.5826 31.3232C49.5832 32.0754 48.3584 32.4527 46.9059 32.4527C45.7315 32.4527 44.6793 32.1924 43.7469 31.6742C42.8145 31.156 42.0883 30.4205 41.5682 29.4701C41.0481 28.5197 40.7868 27.4236 40.7868 26.1795C40.7868 24.9353 41.0433 23.8178 41.5562 22.8673C42.0691 21.9169 42.7882 21.1862 43.7133 20.6728C44.6385 20.1618 45.7027 19.9062 46.9059 19.9062C48.1091 19.9062 49.1038 20.1546 50.0218 20.6513C50.9398 21.148 51.6516 21.8548 52.1574 22.767C52.6631 23.6816 52.9171 24.73 52.9171 25.9144C52.9171 26.3538 52.8884 26.7478 52.8285 27.0988ZM49.7246 25.0356C49.7102 24.2452 49.4226 23.6148 48.8665 23.1372C48.308 22.662 47.6273 22.4256 46.8196 22.4256C46.055 22.4256 45.4127 22.6548 44.8926 23.1157C44.3725 23.5766 44.0513 24.2166 43.9338 25.0356H49.7246Z" fill="#E50071"/>
<path d="M59.796 20.4722C60.4336 20.1068 61.1646 19.923 61.9867 19.923V23.1467H61.1718C60.2035 23.1467 59.4725 23.3736 58.9811 23.8273C58.4898 24.281 58.2429 25.0715 58.2429 26.1962V32.2497H55.1606V20.0973H58.2429V21.9838C58.6384 21.3414 59.1561 20.8352 59.796 20.4698V20.4722Z" fill="#E50071"/>
<path d="M67.1399 20.0997V32.2521H64.0576V20.0997H67.1399Z" fill="#F2F0E9"/>
<path d="M79.5795 21.296C80.4735 22.2106 80.9217 23.4858 80.9217 25.124V32.2545H77.8394V25.5419C77.8394 24.5771 77.5973 23.8345 77.1131 23.3163C76.629 22.7981 75.9674 22.5378 75.131 22.5378C74.2945 22.5378 73.609 22.7981 73.1152 23.3163C72.6239 23.8345 72.377 24.5771 72.377 25.5419V32.2545H69.2947V20.1021H72.377V21.616C72.7869 21.0907 73.3118 20.6776 73.9517 20.3767C74.5917 20.0782 75.2915 19.9277 76.0537 19.9277C77.5062 19.9277 78.6807 20.3838 79.5771 21.2984L79.5795 21.296Z" fill="#F2F0E9"/>
<path d="M85.3917 31.913C84.5984 31.5548 83.9704 31.0677 83.5078 30.454C83.0453 29.8403 82.7936 29.1597 82.748 28.4146H85.8519C85.9095 28.8827 86.142 29.2695 86.5446 29.5776C86.9473 29.8856 87.4506 30.0385 88.0522 30.0385C88.6538 30.0385 89.0972 29.9214 89.428 29.6874C89.7588 29.4534 89.9241 29.1549 89.9241 28.7872C89.9241 28.3931 89.7228 28.097 89.3178 27.8988C88.9151 27.7006 88.2727 27.4857 87.3907 27.2517C86.4799 27.032 85.7369 26.8051 85.1569 26.5711C84.5768 26.3371 84.0783 25.9789 83.6588 25.4965C83.2394 25.0141 83.0309 24.3622 83.0309 23.5431C83.0309 22.8697 83.225 22.256 83.6133 21.6996C84.0016 21.1432 84.56 20.7062 85.2863 20.3838C86.0125 20.0615 86.8682 19.9015 87.8509 19.9015C89.3034 19.9015 90.4634 20.2644 91.3311 20.988C92.1963 21.7116 92.6733 22.6882 92.762 23.9157H89.8115C89.7684 23.4333 89.5646 23.0488 89.2051 22.7647C88.8456 22.4805 88.3638 22.3372 87.7622 22.3372C87.2038 22.3372 86.7747 22.4399 86.4751 22.6453C86.1755 22.8506 86.0245 23.1348 86.0245 23.5002C86.0245 23.9085 86.2306 24.2213 86.6405 24.4315C87.0504 24.644 87.6903 24.8589 88.5556 25.0786C89.4376 25.2983 90.1638 25.5252 90.7343 25.7592C91.3071 25.9932 91.8033 26.3562 92.2203 26.8457C92.6398 27.3353 92.8555 27.9824 92.8698 28.7872C92.8698 29.4892 92.6757 30.1173 92.2874 30.6737C91.8991 31.2301 91.3407 31.6647 90.6144 31.9799C89.8882 32.2951 89.0397 32.4527 88.0714 32.4527C87.1031 32.4527 86.1779 32.2736 85.3846 31.9154L85.3917 31.913Z" fill="#F2F0E9"/>
<path d="M99.0009 22.6238V28.503C99.0009 28.9113 99.0992 29.2098 99.2982 29.3913C99.4971 29.5752 99.8302 29.6659 100.3 29.6659H101.731V32.2545H99.7943C97.1961 32.2545 95.8971 30.996 95.8971 28.4815V22.6238H94.4446V20.1021H95.8971V17.0956H99.0009V20.1021H101.731V22.6238H99.0009Z" fill="#F2F0E9"/>
<path d="M104.164 18.1367C103.804 17.7929 103.624 17.3654 103.624 16.8544C103.624 16.3434 103.804 15.9159 104.164 15.572C104.523 15.2282 104.974 15.0562 105.518 15.0562C106.062 15.0562 106.513 15.2282 106.872 15.572C107.232 15.9159 107.411 16.3434 107.411 16.8544C107.411 17.3654 107.232 17.7953 106.872 18.1367C106.513 18.4806 106.062 18.6525 105.518 18.6525C104.974 18.6525 104.523 18.4806 104.164 18.1367ZM107.035 20.0997V32.2521H103.953V20.0997H107.035Z" fill="#F2F0E9"/>
<path d="M119.477 21.296C120.371 22.2106 120.819 23.4858 120.819 25.124V32.2545H117.737V25.5419C117.737 24.5771 117.495 23.8345 117.011 23.3163C116.526 22.7981 115.865 22.5378 115.028 22.5378C114.192 22.5378 113.506 22.7981 113.013 23.3163C112.521 23.8345 112.275 24.5771 112.275 25.5419V32.2545H109.192V20.1021H112.275V21.616C112.684 21.0907 113.209 20.6776 113.849 20.3767C114.489 20.0782 115.189 19.9277 115.951 19.9277C117.404 19.9277 118.578 20.3838 119.475 21.2984L119.477 21.296Z" fill="#F2F0E9"/>
<path d="M122.845 22.8745C123.358 21.9313 124.069 21.2005 124.98 20.6799C125.891 20.1618 126.931 19.9015 128.108 19.9015C129.62 19.9015 130.872 20.2788 131.861 21.031C132.851 21.7856 133.515 22.8411 133.856 24.1998H130.531C130.356 23.6721 130.059 23.2614 129.64 22.9605C129.22 22.662 128.705 22.5115 128.086 22.5115C127.207 22.5115 126.509 22.8291 125.994 23.4667C125.479 24.1043 125.225 25.007 125.225 26.1771C125.225 27.3472 125.481 28.2284 125.994 28.8636C126.507 29.4988 127.204 29.8188 128.086 29.8188C129.335 29.8188 130.148 29.2624 130.531 28.1519H133.856C133.518 29.4677 132.849 30.5137 131.852 31.2898C130.852 32.0659 129.606 32.4527 128.108 32.4527C126.934 32.4527 125.891 32.1924 124.98 31.6742C124.069 31.156 123.358 30.4229 122.845 29.4797C122.332 28.5364 122.075 27.4356 122.075 26.1771C122.075 24.9186 122.332 23.8178 122.845 22.8745Z" fill="#F2F0E9"/>
<path d="M139.27 22.6238V28.503C139.27 28.9113 139.368 29.2098 139.567 29.3913C139.766 29.5752 140.099 29.6659 140.569 29.6659H142V32.2545H140.063C137.465 32.2545 136.166 30.996 136.166 28.4815V22.6238H134.714V20.1021H136.166V17.0956H139.27V20.1021H142V22.6238H139.27Z" fill="#F2F0E9"/>
<path d="M65.6563 9.80507C66.6636 9.80507 67.4802 8.99145 67.4802 7.98781C67.4802 6.98417 66.6636 6.17055 65.6563 6.17055C64.6489 6.17055 63.8323 6.98417 63.8323 7.98781C63.8323 8.99145 64.6489 9.80507 65.6563 9.80507Z" fill="#F2F0E9"/>
</g>
<defs>
<linearGradient id="paint0_linear_134_7813" x1="49.6287" y1="7.98781" x2="81.6838" y2="7.98781" gradientUnits="userSpaceOnUse">
<stop stop-color="#0095DB"/>
<stop offset="0.76" stop-color="#DC0675"/>
</linearGradient>
<linearGradient id="paint1_linear_134_7813" x1="49.5112" y1="7.98839" x2="81.5664" y2="7.98839" gradientUnits="userSpaceOnUse">
<stop stop-color="#DC0675"/>
<stop offset="0.99" stop-color="#0095DB"/>
</linearGradient>
<clipPath id="clip0_134_7813">
<rect width="142" height="38" fill="white"/>
</clipPath>
</defs>
</svg>
